# xmcd
#
# Track frame offsets: 
#        150
#        17925
#        33810
#        52951
#        71386
#        96459
#        122323
#        158136
#        178631
#        196241
#        218644
#        238417
#        249292
#
# Disc length: 3644 seconds
#
# Revision: 0
# Processed by: cddbd v1.5.1PL0 Copyright (c) Steve Scherf et al.
# Submitted via: ExactAudioCopy v0.95a5
#
DISCID=a70e3a0d
DTITLE=Johnny Viau and The Blues Allstars - Live At Dizzy's
DYEAR=2001
DGENRE=Blues
TTITLE0=Punkin
TTITLE1=Jump For Fro
TTITLE2=Walkin The Streets
TTITLE3=Since You Been Gone
TTITLE4=All In The Games
TTITLE5=Mr Big Time !&2
TTITLE6=Shorty's New Shoes
TTITLE7=South Shore
TTITLE8=Alligator Loafers
TTITLE9=One More Chance
TTITLE10=Turning Point 
TTITLE11=Aint Gonna Do It
TTITLE12=Five Careless Lovers Theme
EXTD=
EXTT0=
EXTT1=
EXTT2=
EXTT3=
EXTT4=
EXTT5=
EXTT6=
EXTT7=
EXTT8=
EXTT9=
EXTT10=
EXTT11=
EXTT12=
PLAYORDER=
